<svg width="23" height="23" viewBox="0 0 23 23" fill="none" xmlns="http://www.w3.org/2000/svg">
<path d="M11.4391 6.77441C8.59956 6.77441 6.24683 9.08658 6.24683 11.9667C6.24683 14.8467 8.559 17.1589 11.4391 17.1589C14.3191 17.1589 16.6313 14.8062 16.6313 11.9667C16.6313 9.12715 14.2786 6.77441 11.4391 6.77441ZM11.4391 15.2929C9.61367 15.2929 8.11279 13.7921 8.11279 11.9667C8.11279 10.1413 9.61367 8.64037 11.4391 8.64037C13.2645 8.64037 14.7653 10.1413 14.7653 11.9667C14.7653 13.7921 13.2645 15.2929 11.4391 15.2929Z" fill="black"/>
<path d="M16.8342 7.8293C17.4839 7.8293 18.0106 7.30262 18.0106 6.65293C18.0106 6.00324 17.4839 5.47656 16.8342 5.47656C16.1845 5.47656 15.6578 6.00324 15.6578 6.65293C15.6578 7.30262 16.1845 7.8293 16.8342 7.8293Z" fill="black"/>
<path d="M19.8765 3.6104C18.8218 2.51517 17.3209 1.94727 15.6172 1.94727H7.26098C3.73188 1.94727 1.37915 4.3 1.37915 7.8291V16.1448C1.37915 17.8891 1.94705 19.3899 3.08285 20.4852C4.17809 21.5399 5.63841 22.0672 7.30155 22.0672H15.5767C17.3209 22.0672 18.7813 21.4993 19.8359 20.4852C20.9312 19.4305 21.4991 17.9296 21.4991 16.1854V7.8291C21.4991 6.1254 20.9312 4.66508 19.8765 3.6104ZM19.7142 16.1854C19.7142 17.4429 19.268 18.457 18.5379 19.1466C17.8077 19.8362 16.7936 20.2012 15.5767 20.2012H7.30155C6.08462 20.2012 5.07051 19.8362 4.34035 19.1466C3.61019 18.4164 3.24511 17.4023 3.24511 16.1448V7.8291C3.24511 6.61217 3.61019 5.59806 4.34035 4.8679C5.02994 4.17831 6.08462 3.81323 7.30155 3.81323H15.6578C16.8747 3.81323 17.8889 4.17831 18.619 4.90846C19.3086 5.63862 19.7142 6.65273 19.7142 7.8291V16.1854Z" fill="black"/>
</svg>
