<svg width="140" height="28" viewBox="0 0 140 28" fill="none" xmlns="http://www.w3.org/2000/svg">
<path d="M23.2 7.36V26.24C23.2 26.6 22.96 26.84 22.6 26.84H18.12C17.76 26.84 17.56 26.6 17.52 26.24L17.4 24.76C16 26.32 14.12 27.4 11.64 27.4C6.08 27.4 1.96 22.72 1.96 16.88C1.96 11.04 6.08 6.36 11.64 6.36C14 6.36 15.96 7.48 17.4 9.12L17.52 7.44C17.56 7.08 17.76 6.84 18.12 6.84H22.6C22.96 6.76 23.2 7 23.2 7.36ZM16.92 16.8C16.92 14.12 15 11.88 12.4 11.88C9.76 11.88 7.84 14 7.84 16.8C7.84 19.64 9.76 21.76 12.4 21.76C15 21.76 16.92 19.48 16.92 16.8Z" fill="#322F2E"/>
<path d="M41.08 8.24L39.72 11.76C39.56 12.24 39.2 12.32 38.72 12.2C38.32 12.08 37.8 11.88 37.04 11.88C34.48 11.88 32.96 13.76 32.96 16.24V26.24C32.96 26.6 32.72 26.84 32.36 26.84H27.44C27.08 26.84 26.84 26.6 26.84 26.24V7.36C26.84 7 27.08 6.76 27.44 6.76H32.16C32.52 6.76 32.72 7 32.76 7.36L32.92 9.68C33.96 7.72 35.64 6.28 38.08 6.28C39.28 6.28 40.28 6.76 40.88 7.32C41.2 7.64 41.2 7.96 41.08 8.24Z" fill="#322F2E"/>
<path d="M55.8 20.12C56.12 19.84 56.4 19.84 56.72 20.12L59.68 22.96C59.92 23.2 59.96 23.52 59.72 23.84C57.84 26 55.04 27.4 51.84 27.4C46.04 27.4 41.56 22.76 41.56 16.88C41.56 11 46.08 6.36 51.84 6.36C54.96 6.36 57.72 7.76 59.6 9.92C59.84 10.2 59.8 10.52 59.56 10.8L56.56 13.6C56.28 13.88 56 13.84 55.68 13.56C54.52 12.56 53.36 12 52 12C49.32 12 47.44 14.08 47.44 16.84C47.44 19.6 49.32 21.68 52 21.68C53.44 21.68 54.64 21.12 55.8 20.12Z" fill="#322F2E"/>
<path d="M82.64 7.36V26.24C82.64 26.6 82.4 26.84 82.04 26.84H77.56C77.2 26.84 77 26.6 76.96 26.24L76.84 24.76C75.44 26.32 73.56 27.4 71.08 27.4C65.52 27.4 61.4 22.72 61.4 16.88C61.4 11.04 65.52 6.36 71.08 6.36C73.44 6.36 75.4 7.48 76.84 9.12L76.96 7.44C77 7.08 77.2 6.84 77.56 6.84H82.04C82.4 6.76 82.64 7 82.64 7.36ZM76.36 16.8C76.36 14.12 74.44 11.88 71.84 11.88C69.2 11.88 67.28 14 67.28 16.8C67.28 19.64 69.2 21.76 71.84 21.76C74.44 21.76 76.36 19.48 76.36 16.8Z" fill="#322F2E"/>
<path d="M100.52 8.24L99.16 11.76C99 12.24 98.64 12.32 98.12 12.2C97.72 12.08 97.2 11.88 96.44 11.88C93.88 11.88 92.36 13.76 92.36 16.24V26.24C92.36 26.6 92.12 26.84 91.76 26.84H86.84C86.48 26.84 86.24 26.6 86.24 26.24V7.36C86.24 7 86.48 6.76 86.84 6.76H91.56C91.92 6.76 92.12 7 92.16 7.36L92.32 9.68C93.36 7.72 95.04 6.28 97.48 6.28C98.68 6.28 99.68 6.76 100.28 7.32C100.64 7.64 100.64 7.96 100.52 8.24Z" fill="#322F2E"/>
<path d="M115.08 7.36V11.08C115.08 11.44 114.84 11.68 114.48 11.68H111.6V26.2C111.6 26.56 111.36 26.8 111 26.8H106.08C105.72 26.8 105.48 26.56 105.48 26.2V11.72H102.6C102.24 11.72 102 11.48 102 11.12V7.36C102 7 102.24 6.76 102.6 6.76H105.48V1.24C105.48 0.879999 105.72 0.639999 106.08 0.639999H111C111.36 0.639999 111.6 0.879999 111.6 1.24V6.76H114.48C114.84 6.76 115.08 7 115.08 7.36Z" fill="#322F2E"/>
<path d="M138.04 7.36V26.24C138.04 26.6 137.8 26.84 137.44 26.84H132.96C132.6 26.84 132.4 26.6 132.36 26.24L132.24 24.76C130.84 26.32 128.96 27.4 126.48 27.4C120.92 27.4 116.8 22.72 116.8 16.88C116.8 11.04 120.92 6.36 126.48 6.36C128.84 6.36 130.8 7.48 132.24 9.12L132.36 7.44C132.4 7.08 132.6 6.84 132.96 6.84H137.44C137.8 6.76 138.04 7 138.04 7.36ZM131.76 16.8C131.76 14.12 129.84 11.88 127.24 11.88C124.6 11.88 122.68 14 122.68 16.8C122.68 19.64 124.6 21.76 127.24 21.76C129.84 21.76 131.76 19.48 131.76 16.8Z" fill="#322F2E"/>
</svg>
