<svg width="158" height="67" viewBox="0 0 158 67" fill="none" xmlns="http://www.w3.org/2000/svg">
<path d="M70.4565 63.1477C70.3872 63.1477 70.3233 63.1059 70.296 63.0386L47.2269 3.10288C47.1923 3.01558 47.2379 2.91554 47.3254 2.88099C47.413 2.84825 47.5133 2.8919 47.5461 2.9792L70.617 62.9149C70.6516 63.0022 70.606 63.1022 70.5185 63.135C70.4984 63.1441 70.4765 63.1477 70.4565 63.1477Z" fill="black"/>
<path d="M89.6226 56.5216L85.4279 45.6377L85.4042 45.5795H84.6765L80.4344 56.5634L75.4245 43.6279H74.3612L79.9766 58.2003L79.9985 58.2585H80.7755L85.0413 47.1946L89.298 58.2585H90.0494L95.6867 43.6279H94.6071L89.6226 56.5216Z" fill="black"/>
<path d="M99.3288 58.2585H107.215V57.3309H100.332V51.0342H106.008V50.1066H100.332V44.5555H107.215V43.6279H99.3288V58.2585Z" fill="black"/>
<path d="M133.813 43.6279H132.6L125.389 51.3416V43.6279H124.388V58.2585H125.389V52.6638L126.965 50.9578L133.393 58.2276L133.421 58.2585H134.699L127.643 50.2466L133.813 43.6279Z" fill="black"/>
<path d="M111.979 58.2585H119.865V57.3309H112.982V51.0342H118.657V50.1066H112.982V44.5555H119.865V43.6279H111.979V58.2585Z" fill="black"/>
<path d="M79.8562 40.1577H80.9086L75.2713 25.5234H74.4469L68.8132 40.1577H69.8637L71.5234 35.8434H78.1875L79.8562 40.1577ZM77.8337 34.9177H71.879L74.8573 27.1786L77.8337 34.9177Z" fill="black"/>
<path d="M97.1038 26.4603H102.272V40.1651H103.274V26.4603H108.442V25.5327H97.1038V26.4603Z" fill="black"/>
<path d="M118.336 19.6943C119.505 18.4393 120.124 16.6569 120.124 14.5416C120.124 9.94542 117.282 7.20264 112.522 7.20264H108.448V21.8333H112.522C115.059 21.8333 117.014 21.113 118.336 19.6943ZM119.121 14.5416C119.121 16.9097 118.267 20.882 112.546 20.882H109.449V8.15388H112.546C118.267 8.15388 119.121 12.1553 119.121 14.5416Z" fill="black"/>
<path d="M93.5383 9.21607L102.435 21.8333H103.175V7.20264H102.198V19.8198L93.3031 7.20264H92.5608V21.8333H93.5383V9.21607Z" fill="black"/>
<path d="M130.827 6.86426C126.563 6.86426 123.468 10.0836 123.468 14.5179C123.468 18.9522 126.563 22.1697 130.827 22.1697C135.091 22.1697 138.188 18.9522 138.188 14.5179C138.188 10.0836 135.093 6.86426 130.827 6.86426ZM137.187 14.5179C137.187 18.4629 134.572 21.2202 130.829 21.2202C127.087 21.2202 124.472 18.4647 124.472 14.5179C124.472 10.5728 127.085 7.8155 130.829 7.8155C134.572 7.8155 137.187 10.5728 137.187 14.5179Z" fill="black"/>
<path d="M151.879 7.20264V19.8198L142.985 7.20264H142.242V21.8333H143.22V9.21607L152.116 21.8333H152.857V7.20264H151.879Z" fill="black"/>
<path d="M71.7568 20.9057H64.8739V7.20264H63.8708V21.8333H71.7568V20.9057Z" fill="black"/>
<path d="M80.8666 22.1697C85.1307 22.1697 88.2274 18.9522 88.2274 14.5179C88.2274 10.0836 85.1325 6.86426 80.8666 6.86426C76.6026 6.86426 73.5077 10.0836 73.5077 14.5179C73.5077 18.9522 76.6026 22.1697 80.8666 22.1697ZM74.5089 14.5179C74.5089 10.5728 77.1224 7.8155 80.8666 7.8155C84.6091 7.8155 87.2244 10.571 87.2244 14.5179C87.2244 18.4629 84.6109 21.2202 80.8666 21.2202C77.1242 21.2202 74.5089 18.4629 74.5089 14.5179Z" fill="black"/>
<path d="M85.2382 40.1631H86.2413V33.9701H89.3655L93.666 40.1631H94.8533L90.4415 33.9009C92.9693 33.5281 93.8757 31.5292 93.8757 29.7595C93.8757 27.8061 92.745 25.5234 89.557 25.5234H85.2382V40.1631ZM89.557 26.451C92.6337 26.451 92.8726 28.9828 92.8726 29.7595C92.8726 30.7471 92.5498 33.0425 89.557 33.0425H86.2395V26.451H89.557Z" fill="black"/>
<path d="M9.61864 31.4311C9.61864 31.4311 9.62047 31.4311 9.61864 31.4311C9.62047 31.4311 9.62047 31.4311 9.61864 31.4311H24.4387C25.0223 31.4311 25.4929 30.96 25.4929 30.378C25.4929 29.7978 25.0205 29.3267 24.4387 29.3267H10.6746V7.93005C10.6746 7.34985 10.2023 6.87695 9.62047 6.87695C9.03868 6.87695 8.56632 7.34803 8.56632 7.93005V30.378C8.5645 30.96 9.03686 31.4311 9.61864 31.4311Z" fill="black"/>
<path d="M19.4033 57.7857C19.4051 57.7821 19.4069 57.7803 19.4069 57.7784L37.4642 10.8655L41.8759 22.3259H35.2775C34.6957 22.3259 34.2233 22.797 34.2233 23.379C34.2233 23.961 34.6957 24.4321 35.2775 24.4321H42.6875L45.1223 30.758C45.2828 31.1763 45.684 31.4328 46.1071 31.4328C46.233 31.4328 46.3606 31.4109 46.4847 31.3618C47.0281 31.1545 47.2999 30.5452 47.092 30.0032L38.4491 7.5516C38.4454 7.54251 38.4418 7.53523 38.4381 7.52614C38.4308 7.50977 38.4235 7.4934 38.4162 7.47703C38.4089 7.46066 38.3998 7.44611 38.3925 7.42974C38.3852 7.41519 38.3779 7.40246 38.3688 7.38791C38.3597 7.37154 38.3487 7.35517 38.3378 7.34062C38.3287 7.32789 38.3214 7.31697 38.3123 7.30424C38.3013 7.28787 38.2886 7.27332 38.2776 7.25877C38.2685 7.24786 38.2576 7.23695 38.2484 7.22421C38.2357 7.20966 38.2229 7.19693 38.2101 7.18238C38.1992 7.17147 38.1883 7.16056 38.1755 7.14964C38.1627 7.13691 38.1481 7.126 38.1354 7.11327C38.1226 7.10235 38.1098 7.09326 38.0971 7.08235C38.0825 7.07143 38.0679 7.06052 38.0533 7.05143C38.0405 7.04233 38.0259 7.03324 38.0132 7.02596C37.9968 7.01687 37.9803 7.00596 37.9639 6.99686C37.9512 6.98959 37.9384 6.98413 37.9238 6.97685C37.9056 6.96776 37.8855 6.95867 37.8654 6.95139C37.8581 6.94775 37.8527 6.94593 37.8454 6.9423C37.8399 6.94048 37.8344 6.93866 37.8271 6.93684C37.8071 6.92956 37.787 6.92229 37.767 6.91683C37.7542 6.9132 37.7396 6.90956 37.7268 6.90592C37.7086 6.90046 37.6885 6.89683 37.6703 6.89319C37.6557 6.88955 37.6393 6.88773 37.6247 6.88409C37.6065 6.88228 37.5882 6.88046 37.57 6.87864C37.5536 6.87682 37.5372 6.875 37.5207 6.875C37.5043 6.875 37.4861 6.875 37.4697 6.875C37.4533 6.875 37.435 6.875 37.4186 6.875C37.4022 6.875 37.3858 6.87682 37.3694 6.87864C37.3511 6.88046 37.3329 6.88228 37.3147 6.88409C37.3001 6.88591 37.2837 6.88955 37.2691 6.89319C37.249 6.89683 37.2308 6.90046 37.2107 6.90592C37.1979 6.90956 37.1833 6.9132 37.1706 6.91683C37.1505 6.92229 37.1286 6.92956 37.1086 6.93684C37.1031 6.93866 37.0976 6.94048 37.0903 6.9423C37.083 6.94412 37.0776 6.94775 37.0703 6.95139C37.0502 6.95867 37.032 6.96776 37.0119 6.97685C36.9991 6.98413 36.9864 6.98959 36.9736 6.99686C36.9572 7.00596 36.939 7.01505 36.9225 7.02596C36.9098 7.03324 36.8952 7.04233 36.8824 7.05143C36.8678 7.06052 36.8532 7.07143 36.8386 7.08235C36.8259 7.09144 36.8131 7.10235 36.8004 7.11145C36.7858 7.12236 36.773 7.13509 36.7584 7.14782C36.7475 7.15874 36.7365 7.16783 36.7256 7.17874C36.711 7.19148 36.6982 7.20603 36.6854 7.22058C36.6763 7.23149 36.6654 7.2424 36.6563 7.25332C36.6435 7.26787 36.6326 7.28424 36.6198 7.3006C36.6107 7.31152 36.6034 7.32425 36.5943 7.33698C36.5833 7.35335 36.5742 7.36972 36.5633 7.38609C36.556 7.39882 36.5468 7.41337 36.5395 7.42792C36.5304 7.44429 36.5231 7.45884 36.5158 7.47521C36.5085 7.49158 36.5013 7.50795 36.494 7.52432C36.4903 7.53341 36.4867 7.54069 36.483 7.54978L18.4257 54.4627L10.6035 34.1555C10.3956 33.6135 9.78462 33.3407 9.24113 33.5499C8.69764 33.759 8.4259 34.3665 8.63381 34.9085L17.4372 57.7784C17.4409 57.7857 17.4445 57.7912 17.4463 57.7984C17.4628 57.8385 17.481 57.8803 17.5029 57.9185C17.5102 57.9312 17.5175 57.9421 17.5248 57.953C17.5412 57.9803 17.5594 58.0076 17.5795 58.0331C17.5904 58.0476 17.6014 58.0622 17.6123 58.0749C17.6378 58.1058 17.6652 58.1349 17.6944 58.1622C17.7071 58.1749 17.7217 58.1859 17.7363 58.1986C17.7564 58.2168 17.7783 58.2331 17.802 58.2495C17.8166 58.2604 17.833 58.2713 17.8476 58.2822C17.8804 58.3041 17.9132 58.3223 17.9497 58.3405C17.9698 58.3495 17.9898 58.3586 18.0099 58.3677C18.0208 58.3732 18.0318 58.3786 18.0445 58.3823C18.05 58.3841 18.0555 58.3841 18.061 58.3877C18.112 58.4059 18.1649 58.4205 18.2196 58.4314C18.2269 58.4332 18.2324 58.435 18.2397 58.4368C18.2999 58.4478 18.3619 58.455 18.4239 58.455C18.4512 58.455 18.4804 58.4496 18.5078 58.4478C18.5351 58.4459 18.5625 58.4441 18.588 58.4405C18.6172 58.435 18.6464 58.4278 18.6756 58.4205C18.7048 58.4132 18.7339 58.4059 18.7613 58.3968C18.7741 58.3932 18.7886 58.3914 18.8014 58.3859C18.982 58.3168 19.1297 58.204 19.2428 58.064C19.2446 58.0603 19.2464 58.0585 19.2501 58.0549C19.3121 57.973 19.365 57.8821 19.4033 57.7857Z" fill="black"/>
<path d="M46.4828 33.5496C45.9393 33.3405 45.3284 33.6115 45.1205 34.1553L37.3019 54.4661L30.7253 37.3801C30.5156 36.8381 29.9064 36.5653 29.363 36.7744C28.8195 36.9836 28.5477 37.5911 28.7556 38.1331L36.3171 57.7782C36.3189 57.7855 36.3243 57.7909 36.3262 57.7982C36.3426 57.84 36.3626 57.8819 36.3845 57.9201C36.39 57.9292 36.3955 57.9383 36.4009 57.9473C36.4192 57.9783 36.4411 58.0092 36.463 58.0383C36.4721 58.0492 36.4794 58.0619 36.4885 58.0728C36.5158 58.1056 36.545 58.1383 36.5779 58.1674C36.587 58.1765 36.5961 58.1838 36.6052 58.1911C36.6326 58.2147 36.6599 58.2365 36.6909 58.2584C36.7 58.2656 36.711 58.2729 36.7201 58.2802C36.7566 58.3038 36.7949 58.3257 36.835 58.3457C36.846 58.3511 36.8587 58.3566 36.8697 58.362C36.8879 58.3693 36.9043 58.3784 36.9225 58.3857C36.9317 58.3893 36.939 58.3893 36.9481 58.393C36.99 58.4075 37.0338 58.4202 37.0776 58.4293C37.094 58.433 37.1086 58.4366 37.1232 58.4402C37.1815 58.4493 37.2399 58.4566 37.3001 58.4566C37.3037 58.4566 37.3092 58.4548 37.3128 58.4548C37.3676 58.4548 37.4204 58.4493 37.4752 58.4402C37.4934 58.4366 37.5135 58.4312 37.5317 58.4275C37.5718 58.4184 37.6119 58.4075 37.6521 58.3948C37.6612 58.3911 37.6703 58.3911 37.6812 58.3875C37.7013 58.3802 37.7214 58.3711 37.7396 58.362C37.7487 58.3584 37.756 58.3548 37.7651 58.3511C37.8071 58.3311 37.8472 58.3075 37.8855 58.282C37.8928 58.2766 37.9001 58.2711 37.9074 58.2656C37.9402 58.242 37.9712 58.2184 38.0022 58.1911C38.0095 58.1856 38.0168 58.1783 38.0241 58.1729C38.0569 58.142 38.0879 58.1092 38.1171 58.0747C38.1244 58.0656 38.1317 58.0547 38.139 58.0456C38.1627 58.0146 38.1864 57.9819 38.2065 57.9473C38.2101 57.9401 38.2156 57.9328 38.2193 57.9255C38.243 57.8855 38.2612 57.8437 38.2794 57.8C38.2813 57.7946 38.2849 57.7891 38.2886 57.7818L47.092 34.9119C47.2981 34.3663 47.0263 33.757 46.4828 33.5496Z" fill="black"/>
</svg>
