<svg width="22" height="18" viewBox="0 0 22 18" fill="none" xmlns="http://www.w3.org/2000/svg">
<path d="M21.1406 2.70508C20.3929 3.03594 19.5937 3.25938 18.7515 3.3625C19.6109 2.84688 20.2726 2.03047 20.582 1.05937C19.7785 1.53633 18.889 1.88437 17.9394 2.06914C17.1789 1.25703 16.0961 0.75 14.9015 0.75C12.6027 0.75 10.7422 2.61484 10.7422 4.91367C10.7422 5.24023 10.7765 5.5582 10.8496 5.86328C7.3906 5.69141 4.32263 4.03281 2.27302 1.51055C1.91638 2.125 1.71013 2.84258 1.71013 3.60312C1.71013 5.04687 2.4449 6.32305 3.56209 7.0707C2.87888 7.05352 2.23435 6.86445 1.67576 6.55078C1.67576 6.56797 1.67576 6.58516 1.67576 6.60234C1.67576 8.62187 3.11091 10.302 5.01443 10.6844C4.66638 10.7789 4.29685 10.8305 3.91873 10.8305C3.65232 10.8305 3.39021 10.8047 3.13669 10.7531C3.66521 12.4074 5.20349 13.6105 7.02537 13.6449C5.6031 14.7621 3.80701 15.4281 1.85623 15.4281C1.52107 15.4281 1.19021 15.4066 0.863647 15.368C2.70271 16.5625 4.88982 17.25 7.23591 17.25C14.8929 17.25 19.0781 10.9035 19.0781 5.39922C19.0781 5.21875 19.0738 5.03828 19.0652 4.86211C19.8773 4.27344 20.582 3.53867 21.1406 2.70508Z" fill="black"/>
</svg>
