<svg width="22" height="22" viewBox="0 0 22 22" fill="none" xmlns="http://www.w3.org/2000/svg">
<path d="M15.7143 11.0002C15.7143 10.6974 15.5915 10.4764 15.346 10.3373L9.06027 6.40869C8.80655 6.245 8.54055 6.23682 8.26228 6.38414C7.99219 6.53146 7.85714 6.76063 7.85714 7.07164V14.9288C7.85714 15.2398 7.99219 15.469 8.26228 15.6163C8.39323 15.6818 8.52009 15.7145 8.64286 15.7145C8.80655 15.7145 8.94568 15.6736 9.06027 15.5917L15.346 11.6632C15.5915 11.524 15.7143 11.303 15.7143 11.0002ZM22 11.0002C22 11.7859 21.9959 12.3998 21.9877 12.8417C21.9795 13.2837 21.9448 13.8423 21.8834 14.5175C21.822 15.1927 21.7299 15.7963 21.6071 16.3283C21.4762 16.9258 21.1938 17.4292 20.76 17.8384C20.3263 18.2476 19.8188 18.485 19.2377 18.5504C17.4208 18.755 14.6749 18.8574 11 18.8574C7.32515 18.8574 4.57924 18.755 2.76228 18.5504C2.18118 18.485 1.67169 18.2476 1.23382 17.8384C0.795945 17.4292 0.511533 16.9258 0.38058 16.3283C0.265997 15.7963 0.178013 15.1927 0.116629 14.5175C0.0552455 13.8423 0.0204613 13.2837 0.0122768 12.8417C0.00409226 12.3998 0 11.7859 0 11.0002C0 10.2145 0.00409226 9.60066 0.0122768 9.15869C0.0204613 8.71673 0.0552455 8.15813 0.116629 7.48291C0.178013 6.80769 0.270089 6.20408 0.392857 5.67208C0.523809 5.07461 0.806176 4.57127 1.23996 4.16204C1.67374 3.75281 2.18118 3.51546 2.76228 3.44999C4.57924 3.24537 7.32515 3.14307 11 3.14307C14.6749 3.14307 17.4208 3.24537 19.2377 3.44999C19.8188 3.51546 20.3283 3.75281 20.7662 4.16204C21.2041 4.57127 21.4885 5.07461 21.6194 5.67208C21.734 6.20408 21.822 6.80769 21.8834 7.48291C21.9448 8.15813 21.9795 8.71673 21.9877 9.15869C21.9959 9.60066 22 10.2145 22 11.0002Z" fill="black"/>
</svg>
